<?xml version="1.0" encoding="UTF-8" standalone="no"?>
<svg width="146px" height="43px" viewBox="0 0 146 43" version="1.1" xmlns="http://www.w3.org/2000/svg" xmlns:xlink="http://www.w3.org/1999/xlink" xmlns:sketch="http://www.bohemiancoding.com/sketch/ns">
    <defs></defs>
    <g id="Page-1" stroke="none" stroke-width="1" fill="none" fill-rule="evenodd" sketch:type="MSPage">
        <g id="Jobs-Overlay" sketch:type="MSArtboardGroup" transform="translate(-51.000000, -42.000000)" fill="#353633">
            <g id="Rectangle-293" sketch:type="MSLayerGroup">
                <g id="Imported-Layers-4" transform="translate(51.000000, 42.000000)" sketch:type="MSShapeGroup">
                    <path d="M36.65,0.066 L12.4,0.066 L0.276,21.066 L12.401,42.066 L36.65,42.066 L48.774,21.066 L36.65,0.066 L36.65,0.066 Z M19.166,11.783 C21.458,10.459 24.391,11.246 25.713,13.537 L28.11,17.688 L19.808,22.481 L17.411,18.331 C16.088,16.039 16.873,13.106 19.166,11.783 L19.166,11.783 Z M20.383,28.602 C19.836,30.647 17.733,31.861 15.688,31.314 C13.642,30.765 12.429,28.662 12.976,26.615 L15.927,18.636 L20.001,25.691 C20.492,26.542 20.658,27.577 20.383,28.602 L20.383,28.602 Z M20.528,23.728 L28.829,18.933 L29.788,20.594 L21.486,25.388 L20.528,23.728 L20.528,23.728 Z M22.444,27.048 L22.205,26.634 L30.507,21.839 L30.746,22.254 C30.998,22.689 31.171,23.146 31.273,23.609 L23.353,28.184 C23.002,27.862 22.695,27.482 22.444,27.048 L22.444,27.048 Z M28.991,28.803 C27.634,29.587 26.051,29.63 24.711,29.061 L31.355,25.224 C31.179,26.669 30.349,28.018 28.991,28.803 L28.991,28.803 Z M33.121,21.247 C32.098,20.973 31.284,20.309 30.793,19.46 L26.719,12.404 L35.105,13.839 C37.152,14.388 38.366,16.49 37.816,18.536 C37.269,20.581 35.167,21.795 33.121,21.247 L33.121,21.247 Z" id="Fill-1"></path>
                    <path d="M107.6,11.275 L107.6,26.885 L96.51,11.275 L94.347,11.275 L94.347,30.857 L96.51,30.857 L96.51,14.999 L107.6,30.857 L109.767,30.857 L109.767,11.275 L107.6,11.275" id="Fill-2"></path>
                    <path d="M145.442,11.275 L142.519,11.275 L136.923,21.29 L136.92,21.29 L131.318,11.275 L128.397,11.275 L135.838,24.477 L135.838,30.857 L138.001,30.857 L138.001,24.475 L138.003,24.477 L145.442,11.275" id="Fill-3"></path>
                    <path d="M68.38,11.275 L68.38,20.405 L57.737,20.405 L57.737,11.275 L55.57,11.275 L55.57,30.857 L57.737,30.857 L57.737,22.259 L68.38,22.259 L68.38,30.857 L70.547,30.857 L70.547,11.275 L68.38,11.275" id="Fill-4"></path>
                    <path d="M126.698,13.395 L126.698,11.275 L112.315,11.275 L112.315,30.857 L126.698,30.857 L126.698,28.757 L114.478,28.757 L114.478,22.259 L124.835,22.259 L124.835,20.405 L114.478,20.405 L114.478,13.395 L126.698,13.395" id="Fill-5"></path>
                    <path d="M82.784,10.918 C77.18,10.918 72.636,15.46 72.636,21.065 C72.636,26.669 77.18,31.213 82.784,31.213 C88.389,31.213 92.933,26.669 92.933,21.065 C92.933,15.46 88.389,10.918 82.784,10.918 L82.784,10.918 Z M82.784,28.996 C78.399,28.996 74.855,25.443 74.855,21.065 C74.855,16.683 78.399,13.132 82.784,13.132 C87.165,13.132 90.713,16.683 90.713,21.065 C90.713,25.443 87.165,28.996 82.784,28.996 L82.784,28.996 Z" id="Fill-6"></path>
                </g>
            </g>
        </g>
    </g>
</svg>
